<svg xmlns="http://www.w3.org/2000/svg" width="2870" height="525"><g transform="translate(835.625,30)"><path class="link" d="M0,0C0,40 -415.625,40 -415.625,80" style="opacity: 1; fill: none; stroke: rgb(204, 204, 204);"/><path class="link" d="M0,0C0,40 50,40 50,80" style="opacity: 1; fill: none; stroke: rgb(204, 204, 204);"/><path class="link" d="M0,0C0,40 515.625,40 515.625,80" style="opacity: 1; fill: none; stroke: rgb(204, 204, 204);"/><path class="link" d="M-415.625,80C-415.625,120 -815.625,120 -815.625,160" style="opacity: 1; fill: none; stroke: rgb(204, 204, 204);"/><path class="link" d="M-415.625,80C-415.625,120 -765.625,120 -765.625,160" style="opacity: 1; fill: none; stroke: rgb(204, 204, 204);"/><path class="link" d="M-415.625,80C-415.625,120 -615.625,120 -615.625,160" style="opacity: 1; fill: none; stroke: rgb(204, 204, 204);"/><path class="link" d="M-415.625,80C-415.625,120 -365.625,120 -365.625,160" style="opacity: 1; fill: none; stroke: rgb(204, 204, 204);"/><path class="link" d="M-415.625,80C-415.625,120 -315.625,120 -315.625,160" style="opacity: 1; fill: none; stroke: rgb(204, 204, 204);"/><path class="link" d="M-365.625,160C-365.625,200 -365.625,200 -365.625,240" style="opacity: 1; fill: none; stroke: rgb(204, 204, 204);"/><path class="link" d="M515.625,80C515.625,120 365.625,120 365.625,160" style="opacity: 1; fill: none; stroke: rgb(204, 204, 204);"/><path class="link" d="M515.625,80C515.625,120 415.625,120 415.625,160" style="opacity: 1; fill: none; stroke: rgb(204, 204, 204);"/><path class="link" d="M515.625,80C515.625,120 465.625,120 465.625,160" style="opacity: 1; fill: none; stroke: rgb(204, 204, 204);"/><path class="link" d="M415.625,160C415.625,200 -265.625,200 -265.625,240" style="opacity: 1; fill: none; stroke: rgb(204, 204, 204);"/><path class="link" d="M0,0C0,40 -515.625,40 -515.625,80" style="opacity: 1; fill: none; stroke: rgb(204, 204, 204);"/><path class="link" d="M0,0C0,40 -465.625,40 -465.625,80" style="opacity: 1; fill: none; stroke: rgb(204, 204, 204);"/><path class="link" d="M-415.625,80C-415.625,120 -715.625,120 -715.625,160" style="opacity: 1; fill: none; stroke: rgb(204, 204, 204);"/><path class="link" d="M-415.625,80C-415.625,120 -665.625,120 -665.625,160" style="opacity: 1; fill: none; stroke: rgb(204, 204, 204);"/><path class="link" d="M-415.625,80C-415.625,120 -565.625,120 -565.625,160" style="opacity: 1; fill: none; stroke: rgb(204, 204, 204);"/><path class="link" d="M-415.625,80C-415.625,120 -515.625,120 -515.625,160" style="opacity: 1; fill: none; stroke: rgb(204, 204, 204);"/><path class="link" d="M-415.625,80C-415.625,120 -465.625,120 -465.625,160" style="opacity: 1; fill: none; stroke: rgb(204, 204, 204);"/><path class="link" d="M-415.625,80C-415.625,120 -415.625,120 -415.625,160" style="opacity: 1; fill: none; stroke: rgb(204, 204, 204);"/><path class="link" d="M-415.625,80C-415.625,120 -265.625,120 -265.625,160" style="opacity: 1; fill: none; stroke: rgb(204, 204, 204);"/><path class="link" d="M-415.625,80C-415.625,120 -215.625,120 -215.625,160" style="opacity: 1; fill: none; stroke: rgb(204, 204, 204);"/><path class="link" d="M-415.625,80C-415.625,120 -165.625,120 -165.625,160" style="opacity: 1; fill: none; stroke: rgb(204, 204, 204);"/><path class="link" d="M-415.625,80C-415.625,120 -115.625,120 -115.625,160" style="opacity: 1; fill: none; stroke: rgb(204, 204, 204);"/><path class="link" d="M-415.625,80C-415.625,120 -65.625,120 -65.625,160" style="opacity: 1; fill: none; stroke: rgb(204, 204, 204);"/><path class="link" d="M-415.625,80C-415.625,120 -15.625,120 -15.625,160" style="opacity: 1; fill: none; stroke: rgb(204, 204, 204);"/><path class="link" d="M515.625,80C515.625,120 515.625,120 515.625,160" style="opacity: 1; fill: none; stroke: rgb(204, 204, 204);"/><path class="link" d="M515.625,80C515.625,120 565.625,120 565.625,160" style="opacity: 1; fill: none; stroke: rgb(204, 204, 204);"/><path class="link" d="M515.625,80C515.625,120 615.625,120 615.625,160" style="opacity: 1; fill: none; stroke: rgb(204, 204, 204);"/><path class="link" d="M515.625,80C515.625,120 665.625,120 665.625,160" style="opacity: 1; fill: none; stroke: rgb(204, 204, 204);"/><path class="link" d="M415.625,160C415.625,200 -215.625,200 -215.625,240" style="opacity: 1; fill: none; stroke: rgb(204, 204, 204);"/><path class="link" d="M415.625,160C415.625,200 -165.625,200 -165.625,240" style="opacity: 1; fill: none; stroke: rgb(204, 204, 204);"/><path class="link" d="M415.625,160C415.625,200 -115.625,200 -115.625,240" style="opacity: 1; fill: none; stroke: rgb(204, 204, 204);"/><path class="link" d="M415.625,160C415.625,200 175,200 175,240" style="opacity: 1; fill: none; stroke: rgb(204, 204, 204);"/><path class="link" d="M415.625,160C415.625,200 465.625,200 465.625,240" style="opacity: 1; fill: none; stroke: rgb(204, 204, 204);"/><path class="link" d="M415.625,160C415.625,200 756.25,200 756.25,240" style="opacity: 1; fill: none; stroke: rgb(204, 204, 204);"/><path class="link" d="M415.625,160C415.625,200 1046.875,200 1046.875,240" style="opacity: 1; fill: none; stroke: rgb(204, 204, 204);"/><path class="link" d="M415.625,160C415.625,200 1096.875,200 1096.875,240" style="opacity: 1; fill: none; stroke: rgb(204, 204, 204);"/><path class="link" d="M-115.625,240C-115.625,280 -215.625,280 -215.625,320" style="opacity: 1; fill: none; stroke: rgb(204, 204, 204);"/><path class="link" d="M-115.625,240C-115.625,280 -165.625,280 -165.625,320" style="opacity: 1; fill: none; stroke: rgb(204, 204, 204);"/><path class="link" d="M-115.625,240C-115.625,280 -115.625,280 -115.625,320" style="opacity: 1; fill: none; stroke: rgb(204, 204, 204);"/><path class="link" d="M-115.625,240C-115.625,280 -65.625,280 -65.625,320" style="opacity: 1; fill: none; stroke: rgb(204, 204, 204);"/><path class="link" d="M-115.625,240C-115.625,280 -15.625,280 -15.625,320" style="opacity: 1; fill: none; stroke: rgb(204, 204, 204);"/><path class="link" d="M1046.875,240C1046.875,280 84.375,280 84.375,320" style="opacity: 1; fill: none; stroke: rgb(204, 204, 204);"/><path class="link" d="M1046.875,240C1046.875,280 134.375,280 134.375,320" style="opacity: 1; fill: none; stroke: rgb(204, 204, 204);"/><path class="link" d="M1046.875,240C1046.875,280 184.375,280 184.375,320" style="opacity: 1; fill: none; stroke: rgb(204, 204, 204);"/><path class="link" d="M1046.875,240C1046.875,280 234.375,280 234.375,320" style="opacity: 1; fill: none; stroke: rgb(204, 204, 204);"/><path class="link" d="M1046.875,240C1046.875,280 284.375,280 284.375,320" style="opacity: 1; fill: none; stroke: rgb(204, 204, 204);"/><path class="link" d="M1046.875,240C1046.875,280 334.375,280 334.375,320" style="opacity: 1; fill: none; stroke: rgb(204, 204, 204);"/><path class="link" d="M1046.875,240C1046.875,280 509.375,280 509.375,320" style="opacity: 1; fill: none; stroke: rgb(204, 204, 204);"/><path class="link" d="M1046.875,240C1046.875,280 684.375,280 684.375,320" style="opacity: 1; fill: none; stroke: rgb(204, 204, 204);"/><path class="link" d="M1046.875,240C1046.875,280 859.375,280 859.375,320" style="opacity: 1; fill: none; stroke: rgb(204, 204, 204);"/><path class="link" d="M1046.875,240C1046.875,280 1034.375,280 1034.375,320" style="opacity: 1; fill: none; stroke: rgb(204, 204, 204);"/><path class="link" d="M1046.875,240C1046.875,280 1162.5,280 1162.5,320" style="opacity: 1; fill: none; stroke: rgb(204, 204, 204);"/><path class="link" d="M1046.875,240C1046.875,280 1290.625,280 1290.625,320" style="opacity: 1; fill: none; stroke: rgb(204, 204, 204);"/><path class="link" d="M1046.875,240C1046.875,280 1418.75,280 1418.75,320" style="opacity: 1; fill: none; stroke: rgb(204, 204, 204);"/><path class="link" d="M1046.875,240C1046.875,280 1546.875,280 1546.875,320" style="opacity: 1; fill: none; stroke: rgb(204, 204, 204);"/><path class="link" d="M1046.875,240C1046.875,280 1600,280 1600,320" style="opacity: 1; fill: none; stroke: rgb(204, 204, 204);"/><path class="link" d="M1046.875,240C1046.875,280 1653.125,280 1653.125,320" style="opacity: 1; fill: none; stroke: rgb(204, 204, 204);"/><path class="link" d="M1046.875,240C1046.875,280 1706.25,280 1706.25,320" style="opacity: 1; fill: none; stroke: rgb(204, 204, 204);"/><path class="link" d="M1046.875,240C1046.875,280 1759.375,280 1759.375,320" style="opacity: 1; fill: none; stroke: rgb(204, 204, 204);"/><path class="link" d="M1046.875,240C1046.875,280 1809.375,280 1809.375,320" style="opacity: 1; fill: none; stroke: rgb(204, 204, 204);"/><path class="link" d="M1046.875,240C1046.875,280 1859.375,280 1859.375,320" style="opacity: 1; fill: none; stroke: rgb(204, 204, 204);"/><path class="link" d="M1046.875,240C1046.875,280 1909.375,280 1909.375,320" style="opacity: 1; fill: none; stroke: rgb(204, 204, 204);"/><path class="link" d="M1046.875,240C1046.875,280 1959.375,280 1959.375,320" style="opacity: 1; fill: none; stroke: rgb(204, 204, 204);"/><path class="link" d="M1046.875,240C1046.875,280 2009.375,280 2009.375,320" style="opacity: 1; fill: none; stroke: rgb(204, 204, 204);"/><path class="link" d="M334.375,320C334.375,360 34.375,360 34.375,400" style="opacity: 1; fill: none; stroke: rgb(204, 204, 204);"/><path class="link" d="M334.375,320C334.375,360 84.375,360 84.375,400" style="opacity: 1; fill: none; stroke: rgb(204, 204, 204);"/><path class="link" d="M334.375,320C334.375,360 134.375,360 134.375,400" style="opacity: 1; fill: none; stroke: rgb(204, 204, 204);"/><path class="link" d="M334.375,320C334.375,360 184.375,360 184.375,400" style="opacity: 1; fill: none; stroke: rgb(204, 204, 204);"/><path class="link" d="M334.375,320C334.375,360 234.375,360 234.375,400" style="opacity: 1; fill: none; stroke: rgb(204, 204, 204);"/><path class="link" d="M334.375,320C334.375,360 284.375,360 284.375,400" style="opacity: 1; fill: none; stroke: rgb(204, 204, 204);"/><path class="link" d="M334.375,320C334.375,360 334.375,360 334.375,400" style="opacity: 1; fill: none; stroke: rgb(204, 204, 204);"/><path class="link" d="M334.375,320C334.375,360 384.375,360 384.375,400" style="opacity: 1; fill: none; stroke: rgb(204, 204, 204);"/><path class="link" d="M334.375,320C334.375,360 434.375,360 434.375,400" style="opacity: 1; fill: none; stroke: rgb(204, 204, 204);"/><path class="link" d="M334.375,320C334.375,360 484.375,360 484.375,400" style="opacity: 1; fill: none; stroke: rgb(204, 204, 204);"/><path class="link" d="M334.375,320C334.375,360 534.375,360 534.375,400" style="opacity: 1; fill: none; stroke: rgb(204, 204, 204);"/><path class="link" d="M334.375,320C334.375,360 584.375,360 584.375,400" style="opacity: 1; fill: none; stroke: rgb(204, 204, 204);"/><path class="link" d="M334.375,320C334.375,360 634.375,360 634.375,400" style="opacity: 1; fill: none; stroke: rgb(204, 204, 204);"/><path class="link" d="M84.375,400C84.375,440 84.375,440 84.375,480" style="opacity: 1; fill: none; stroke: rgb(204, 204, 204);"/><path class="link" d="M1034.375,320C1034.375,360 734.375,360 734.375,400" style="opacity: 1; fill: none; stroke: rgb(204, 204, 204);"/><path class="link" d="M1034.375,320C1034.375,360 784.375,360 784.375,400" style="opacity: 1; fill: none; stroke: rgb(204, 204, 204);"/><path class="link" d="M1034.375,320C1034.375,360 834.375,360 834.375,400" style="opacity: 1; fill: none; stroke: rgb(204, 204, 204);"/><path class="link" d="M1034.375,320C1034.375,360 884.375,360 884.375,400" style="opacity: 1; fill: none; stroke: rgb(204, 204, 204);"/><path class="link" d="M1034.375,320C1034.375,360 934.375,360 934.375,400" style="opacity: 1; fill: none; stroke: rgb(204, 204, 204);"/><path class="link" d="M1034.375,320C1034.375,360 984.375,360 984.375,400" style="opacity: 1; fill: none; stroke: rgb(204, 204, 204);"/><path class="link" d="M1034.375,320C1034.375,360 1034.375,360 1034.375,400" style="opacity: 1; fill: none; stroke: rgb(204, 204, 204);"/><path class="link" d="M1034.375,320C1034.375,360 1084.375,360 1084.375,400" style="opacity: 1; fill: none; stroke: rgb(204, 204, 204);"/><path class="link" d="M1034.375,320C1034.375,360 1134.375,360 1134.375,400" style="opacity: 1; fill: none; stroke: rgb(204, 204, 204);"/><path class="link" d="M1034.375,320C1034.375,360 1184.375,360 1184.375,400" style="opacity: 1; fill: none; stroke: rgb(204, 204, 204);"/><path class="link" d="M1034.375,320C1034.375,360 1234.375,360 1234.375,400" style="opacity: 1; fill: none; stroke: rgb(204, 204, 204);"/><path class="link" d="M1034.375,320C1034.375,360 1284.375,360 1284.375,400" style="opacity: 1; fill: none; stroke: rgb(204, 204, 204);"/><path class="link" d="M1034.375,320C1034.375,360 1334.375,360 1334.375,400" style="opacity: 1; fill: none; stroke: rgb(204, 204, 204);"/><path class="link" d="M784.375,400C784.375,440 784.375,440 784.375,480" style="opacity: 1; fill: none; stroke: rgb(204, 204, 204);"/><path class="link" d="M1546.875,320C1546.875,360 1434.375,360 1434.375,400" style="opacity: 1; fill: none; stroke: rgb(204, 204, 204);"/><path class="link" d="M1546.875,320C1546.875,360 1484.375,360 1484.375,400" style="opacity: 1; fill: none; stroke: rgb(204, 204, 204);"/><path class="link" d="M1546.875,320C1546.875,360 1546.875,360 1546.875,400" style="opacity: 1; fill: none; stroke: rgb(204, 204, 204);"/><path class="link" d="M1546.875,320C1546.875,360 1609.375,360 1609.375,400" style="opacity: 1; fill: none; stroke: rgb(204, 204, 204);"/><path class="link" d="M1546.875,320C1546.875,360 1659.375,360 1659.375,400" style="opacity: 1; fill: none; stroke: rgb(204, 204, 204);"/><path class="link" d="M1484.375,400C1484.375,440 1459.375,440 1459.375,480" style="opacity: 1; fill: none; stroke: rgb(204, 204, 204);"/><path class="link" d="M1484.375,400C1484.375,440 1509.375,440 1509.375,480" style="opacity: 1; fill: none; stroke: rgb(204, 204, 204);"/><path class="link" d="M1609.375,400C1609.375,440 1609.375,440 1609.375,480" style="opacity: 1; fill: none; stroke: rgb(204, 204, 204);"/><path class="link" d="M1759.375,320C1759.375,360 1759.375,360 1759.375,400" style="opacity: 1; fill: none; stroke: rgb(204, 204, 204);"/><path class="link" d="M1959.375,320C1959.375,360 1909.375,360 1909.375,400" style="opacity: 1; fill: none; stroke: rgb(204, 204, 204);"/><path class="link" d="M1959.375,320C1959.375,360 1959.375,360 1959.375,400" style="opacity: 1; fill: none; stroke: rgb(204, 204, 204);"/><path class="link" d="M1959.375,320C1959.375,360 2009.375,360 2009.375,400" style="opacity: 1; fill: none; stroke: rgb(204, 204, 204);"/><path class="link" d="M1959.375,400C1959.375,440 1959.375,440 1959.375,480" style="opacity: 1; fill: none; stroke: rgb(204, 204, 204);"/><g class="node element" transform="translate(0,0)" style="opacity: 1; font-size: 11px; font-weight: bold;"><circle r="10" style="stroke-width: 1.5px; fill: steelblue; stroke: rgb(53, 94, 149);"/><text text-anchor="middle" dy="-15">html</text></g><g class="node element" transform="translate(-415.625,80)" style="opacity: 1; font-size: 11px; font-weight: bold;"><circle r="10" style="stroke-width: 1.5px; fill: steelblue; stroke: rgb(53, 94, 149);"/><text text-anchor="middle" dy="-15">head</text></g><g class="node text indent" transform="translate(-815.625,160)" style="opacity: 1; font-size: 11px; font-weight: bold;"><circle r="10" style="stroke-width: 1.5px; fill: rgb(255, 204, 0); stroke: orange;"/><text text-anchor="middle" dy="-15">#text</text></g><g class="node element" transform="translate(-765.625,160)" style="opacity: 1; font-size: 11px; font-weight: bold;"><circle r="10" style="stroke-width: 1.5px; fill: steelblue; stroke: rgb(53, 94, 149);"/><text text-anchor="middle" dy="-15">meta</text></g><g class="node text indent" transform="translate(-615.625,160)" style="opacity: 1; font-size: 11px; font-weight: bold;"><circle r="10" style="stroke-width: 1.5px; fill: rgb(255, 204, 0); stroke: orange;"/><text text-anchor="middle" dy="-15">#text</text></g><g class="node element" transform="translate(-365.625,160)" style="opacity: 1; font-size: 11px; font-weight: bold;"><circle r="10" style="stroke-width: 1.5px; fill: steelblue; stroke: rgb(53, 94, 149);"/><text text-anchor="middle" dy="-15">title</text></g><g class="node text" transform="translate(-365.625,240)" style="opacity: 1; font-size: 11px; font-weight: bold;"><circle r="10" style="stroke-width: 1.5px; fill: rgb(80, 180, 86); stroke: rgb(13, 149, 44);"/><text text-anchor="middle" dy="-15">#text</text></g><g class="node text indent" transform="translate(-315.625,160)" style="opacity: 1; font-size: 11px; font-weight: bold;"><circle r="10" style="stroke-width: 1.5px; fill: rgb(255, 204, 0); stroke: orange;"/><text text-anchor="middle" dy="-15">#text</text></g><g class="node text indent" transform="translate(50,80)" style="opacity: 1; font-size: 11px; font-weight: bold;"><circle r="10" style="stroke-width: 1.5px; fill: rgb(255, 204, 0); stroke: orange;"/><text text-anchor="middle" dy="-15">#text</text></g><g class="node element" transform="translate(515.625,80)" style="opacity: 1; font-size: 11px; font-weight: bold;"><circle r="10" style="stroke-width: 1.5px; fill: steelblue; stroke: rgb(53, 94, 149);"/><text text-anchor="middle" dy="-15">body</text></g><g class="node text indent" transform="translate(365.625,160)" style="opacity: 1; font-size: 11px; font-weight: bold;"><circle r="10" style="stroke-width: 1.5px; fill: rgb(255, 204, 0); stroke: orange;"/><text text-anchor="middle" dy="-15">#text</text></g><g class="node element" transform="translate(415.625,160)" style="opacity: 1; font-size: 11px; font-weight: bold;"><circle r="10" style="stroke-width: 1.5px; fill: steelblue; stroke: rgb(53, 94, 149);"/><text text-anchor="middle" dy="-15">main.container</text></g><g class="node text" transform="translate(-265.625,240)" style="opacity: 1; font-size: 11px; font-weight: bold;"><circle r="10" style="stroke-width: 1.5px; fill: rgb(80, 180, 86); stroke: rgb(13, 149, 44);"/><text text-anchor="middle" dy="-15">#text</text></g><g class="node text indent" transform="translate(465.625,160)" style="opacity: 1; font-size: 11px; font-weight: bold;"><circle r="10" style="stroke-width: 1.5px; fill: rgb(255, 204, 0); stroke: orange;"/><text text-anchor="middle" dy="-15">#text</text></g><g class="node comment" transform="translate(-515.625,80)" style="opacity: 1; font-size: 11px; font-weight: bold;"><circle r="10" style="stroke-width: 1.5px; fill: rgb(154, 80, 150); stroke: purple;"/><text text-anchor="middle" dy="-15">&lt;!-- --&gt;</text></g><g class="node comment" transform="translate(-465.625,80)" style="opacity: 1; font-size: 11px; font-weight: bold;"><circle r="10" style="stroke-width: 1.5px; fill: rgb(154, 80, 150); stroke: purple;"/><text text-anchor="middle" dy="-15">&lt;!-- --&gt;</text></g><g class="node text indent" transform="translate(-715.625,160)" style="opacity: 1; font-size: 11px; font-weight: bold;"><circle r="10" style="stroke-width: 1.5px; fill: rgb(255, 204, 0); stroke: orange;"/><text text-anchor="middle" dy="-15">#text</text></g><g class="node comment" transform="translate(-665.625,160)" style="opacity: 1; font-size: 11px; font-weight: bold;"><circle r="10" style="stroke-width: 1.5px; fill: rgb(154, 80, 150); stroke: purple;"/><text text-anchor="middle" dy="-15">&lt;!-- --&gt;</text></g><g class="node element" transform="translate(-565.625,160)" style="opacity: 1; font-size: 11px; font-weight: bold;"><circle r="10" style="stroke-width: 1.5px; fill: steelblue; stroke: rgb(53, 94, 149);"/><text text-anchor="middle" dy="-15">meta</text></g><g class="node text indent" transform="translate(-515.625,160)" style="opacity: 1; font-size: 11px; font-weight: bold;"><circle r="10" style="stroke-width: 1.5px; fill: rgb(255, 204, 0); stroke: orange;"/><text text-anchor="middle" dy="-15">#text</text></g><g class="node comment" transform="translate(-465.625,160)" style="opacity: 1; font-size: 11px; font-weight: bold;"><circle r="10" style="stroke-width: 1.5px; fill: rgb(154, 80, 150); stroke: purple;"/><text text-anchor="middle" dy="-15">&lt;!-- --&gt;</text></g><g class="node text indent" transform="translate(-415.625,160)" style="opacity: 1; font-size: 11px; font-weight: bold;"><circle r="10" style="stroke-width: 1.5px; fill: rgb(255, 204, 0); stroke: orange;"/><text text-anchor="middle" dy="-15">#text</text></g><g class="node comment" transform="translate(-265.625,160)" style="opacity: 1; font-size: 11px; font-weight: bold;"><circle r="10" style="stroke-width: 1.5px; fill: rgb(154, 80, 150); stroke: purple;"/><text text-anchor="middle" dy="-15">&lt;!-- --&gt;</text></g><g class="node text indent" transform="translate(-215.625,160)" style="opacity: 1; font-size: 11px; font-weight: bold;"><circle r="10" style="stroke-width: 1.5px; fill: rgb(255, 204, 0); stroke: orange;"/><text text-anchor="middle" dy="-15">#text</text></g><g class="node element" transform="translate(-165.625,160)" style="opacity: 1; font-size: 11px; font-weight: bold;"><circle r="10" style="stroke-width: 1.5px; fill: steelblue; stroke: rgb(53, 94, 149);"/><text text-anchor="middle" dy="-15">link</text></g><g class="node text indent" transform="translate(-115.625,160)" style="opacity: 1; font-size: 11px; font-weight: bold;"><circle r="10" style="stroke-width: 1.5px; fill: rgb(255, 204, 0); stroke: orange;"/><text text-anchor="middle" dy="-15">#text</text></g><g class="node comment" transform="translate(-65.625,160)" style="opacity: 1; font-size: 11px; font-weight: bold;"><circle r="10" style="stroke-width: 1.5px; fill: rgb(154, 80, 150); stroke: purple;"/><text text-anchor="middle" dy="-15">&lt;!-- --&gt;</text></g><g class="node text indent" transform="translate(-15.625,160)" style="opacity: 1; font-size: 11px; font-weight: bold;"><circle r="10" style="stroke-width: 1.5px; fill: rgb(255, 204, 0); stroke: orange;"/><text text-anchor="middle" dy="-15">#text</text></g><g class="node comment" transform="translate(-215.625,240)" style="opacity: 1; font-size: 11px; font-weight: bold;"><circle r="10" style="stroke-width: 1.5px; fill: rgb(154, 80, 150); stroke: purple;"/><text text-anchor="middle" dy="-15">&lt;!-- --&gt;</text></g><g class="node text indent" transform="translate(-165.625,240)" style="opacity: 1; font-size: 11px; font-weight: bold;"><circle r="10" style="stroke-width: 1.5px; fill: rgb(255, 204, 0); stroke: orange;"/><text text-anchor="middle" dy="-15">#text</text></g><g class="node element" transform="translate(-115.625,240)" style="opacity: 1; font-size: 11px; font-weight: bold;"><circle r="10" style="stroke-width: 1.5px; fill: steelblue; stroke: rgb(53, 94, 149);"/><text text-anchor="middle" dy="-15">h1</text></g><g class="node text indent" transform="translate(-215.625,320)" style="opacity: 1; font-size: 11px; font-weight: bold;"><circle r="10" style="stroke-width: 1.5px; fill: rgb(255, 204, 0); stroke: orange;"/><text text-anchor="middle" dy="-15">#text</text></g><g class="node element" transform="translate(-165.625,320)" style="opacity: 1; font-size: 11px; font-weight: bold;"><circle r="10" style="stroke-width: 1.5px; fill: steelblue; stroke: rgb(53, 94, 149);"/><text text-anchor="middle" dy="-15">img.icono</text></g><g class="node text" transform="translate(-115.625,320)" style="opacity: 1; font-size: 11px; font-weight: bold;"><circle r="10" style="stroke-width: 1.5px; fill: rgb(80, 180, 86); stroke: rgb(13, 149, 44);"/><text text-anchor="middle" dy="-15">#text</text></g><g class="node comment" transform="translate(-65.625,320)" style="opacity: 1; font-size: 11px; font-weight: bold;"><circle r="10" style="stroke-width: 1.5px; fill: rgb(154, 80, 150); stroke: purple;"/><text text-anchor="middle" dy="-15">&lt;!-- --&gt;</text></g><g class="node text indent" transform="translate(-15.625,320)" style="opacity: 1; font-size: 11px; font-weight: bold;"><circle r="10" style="stroke-width: 1.5px; fill: rgb(255, 204, 0); stroke: orange;"/><text text-anchor="middle" dy="-15">#text</text></g><g class="node text indent" transform="translate(175,240)" style="opacity: 1; font-size: 11px; font-weight: bold;"><circle r="10" style="stroke-width: 1.5px; fill: rgb(255, 204, 0); stroke: orange;"/><text text-anchor="middle" dy="-15">#text</text></g><g class="node comment" transform="translate(465.625,240)" style="opacity: 1; font-size: 11px; font-weight: bold;"><circle r="10" style="stroke-width: 1.5px; fill: rgb(154, 80, 150); stroke: purple;"/><text text-anchor="middle" dy="-15">&lt;!-- --&gt;</text></g><g class="node text indent" transform="translate(756.25,240)" style="opacity: 1; font-size: 11px; font-weight: bold;"><circle r="10" style="stroke-width: 1.5px; fill: rgb(255, 204, 0); stroke: orange;"/><text text-anchor="middle" dy="-15">#text</text></g><g class="node element" transform="translate(1046.875,240)" style="opacity: 1; font-size: 11px; font-weight: bold;"><circle r="10" style="stroke-width: 1.5px; fill: steelblue; stroke: rgb(53, 94, 149);"/><text text-anchor="middle" dy="-15">form#login-form</text></g><g class="node text indent" transform="translate(84.375,320)" style="opacity: 1; font-size: 11px; font-weight: bold;"><circle r="10" style="stroke-width: 1.5px; fill: rgb(255, 204, 0); stroke: orange;"/><text text-anchor="middle" dy="-15">#text</text></g><g class="node comment" transform="translate(134.375,320)" style="opacity: 1; font-size: 11px; font-weight: bold;"><circle r="10" style="stroke-width: 1.5px; fill: rgb(154, 80, 150); stroke: purple;"/><text text-anchor="middle" dy="-15">&lt;!-- --&gt;</text></g><g class="node text indent" transform="translate(184.375,320)" style="opacity: 1; font-size: 11px; font-weight: bold;"><circle r="10" style="stroke-width: 1.5px; fill: rgb(255, 204, 0); stroke: orange;"/><text text-anchor="middle" dy="-15">#text</text></g><g class="node comment" transform="translate(234.375,320)" style="opacity: 1; font-size: 11px; font-weight: bold;"><circle r="10" style="stroke-width: 1.5px; fill: rgb(154, 80, 150); stroke: purple;"/><text text-anchor="middle" dy="-15">&lt;!-- --&gt;</text></g><g class="node text indent" transform="translate(284.375,320)" style="opacity: 1; font-size: 11px; font-weight: bold;"><circle r="10" style="stroke-width: 1.5px; fill: rgb(255, 204, 0); stroke: orange;"/><text text-anchor="middle" dy="-15">#text</text></g><g class="node element" transform="translate(334.375,320)" style="opacity: 1; font-size: 11px; font-weight: bold;"><circle r="10" style="stroke-width: 1.5px; fill: steelblue; stroke: rgb(53, 94, 149);"/><text text-anchor="middle" dy="-15">div.form-group</text></g><g class="node text indent" transform="translate(34.375,400)" style="opacity: 1; font-size: 11px; font-weight: bold;"><circle r="10" style="stroke-width: 1.5px; fill: rgb(255, 204, 0); stroke: orange;"/><text text-anchor="middle" dy="-15">#text</text></g><g class="node element" transform="translate(84.375,400)" style="opacity: 1; font-size: 11px; font-weight: bold;"><circle r="10" style="stroke-width: 1.5px; fill: steelblue; stroke: rgb(53, 94, 149);"/><text text-anchor="middle" dy="-15">label</text></g><g class="node text" transform="translate(84.375,480)" style="opacity: 1; font-size: 11px; font-weight: bold;"><circle r="10" style="stroke-width: 1.5px; fill: rgb(80, 180, 86); stroke: rgb(13, 149, 44);"/><text text-anchor="middle" dy="-15">#text</text></g><g class="node text indent" transform="translate(134.375,400)" style="opacity: 1; font-size: 11px; font-weight: bold;"><circle r="10" style="stroke-width: 1.5px; fill: rgb(255, 204, 0); stroke: orange;"/><text text-anchor="middle" dy="-15">#text</text></g><g class="node comment" transform="translate(184.375,400)" style="opacity: 1; font-size: 11px; font-weight: bold;"><circle r="10" style="stroke-width: 1.5px; fill: rgb(154, 80, 150); stroke: purple;"/><text text-anchor="middle" dy="-15">&lt;!-- --&gt;</text></g><g class="node text indent" transform="translate(234.375,400)" style="opacity: 1; font-size: 11px; font-weight: bold;"><circle r="10" style="stroke-width: 1.5px; fill: rgb(255, 204, 0); stroke: orange;"/><text text-anchor="middle" dy="-15">#text</text></g><g class="node element" transform="translate(284.375,400)" style="opacity: 1; font-size: 11px; font-weight: bold;"><circle r="10" style="stroke-width: 1.5px; fill: steelblue; stroke: rgb(53, 94, 149);"/><text text-anchor="middle" dy="-15">input#email</text></g><g class="node text indent" transform="translate(334.375,400)" style="opacity: 1; font-size: 11px; font-weight: bold;"><circle r="10" style="stroke-width: 1.5px; fill: rgb(255, 204, 0); stroke: orange;"/><text text-anchor="middle" dy="-15">#text</text></g><g class="node comment" transform="translate(384.375,400)" style="opacity: 1; font-size: 11px; font-weight: bold;"><circle r="10" style="stroke-width: 1.5px; fill: rgb(154, 80, 150); stroke: purple;"/><text text-anchor="middle" dy="-15">&lt;!-- --&gt;</text></g><g class="node text indent" transform="translate(434.375,400)" style="opacity: 1; font-size: 11px; font-weight: bold;"><circle r="10" style="stroke-width: 1.5px; fill: rgb(255, 204, 0); stroke: orange;"/><text text-anchor="middle" dy="-15">#text</text></g><g class="node element" transform="translate(484.375,400)" style="opacity: 1; font-size: 11px; font-weight: bold;"><circle r="10" style="stroke-width: 1.5px; fill: steelblue; stroke: rgb(53, 94, 149);"/><text text-anchor="middle" dy="-15">span.error-message</text></g><g class="node text indent" transform="translate(534.375,400)" style="opacity: 1; font-size: 11px; font-weight: bold;"><circle r="10" style="stroke-width: 1.5px; fill: rgb(255, 204, 0); stroke: orange;"/><text text-anchor="middle" dy="-15">#text</text></g><g class="node comment" transform="translate(584.375,400)" style="opacity: 1; font-size: 11px; font-weight: bold;"><circle r="10" style="stroke-width: 1.5px; fill: rgb(154, 80, 150); stroke: purple;"/><text text-anchor="middle" dy="-15">&lt;!-- --&gt;</text></g><g class="node text indent" transform="translate(634.375,400)" style="opacity: 1; font-size: 11px; font-weight: bold;"><circle r="10" style="stroke-width: 1.5px; fill: rgb(255, 204, 0); stroke: orange;"/><text text-anchor="middle" dy="-15">#text</text></g><g class="node text indent" transform="translate(509.375,320)" style="opacity: 1; font-size: 11px; font-weight: bold;"><circle r="10" style="stroke-width: 1.5px; fill: rgb(255, 204, 0); stroke: orange;"/><text text-anchor="middle" dy="-15">#text</text></g><g class="node comment" transform="translate(684.375,320)" style="opacity: 1; font-size: 11px; font-weight: bold;"><circle r="10" style="stroke-width: 1.5px; fill: rgb(154, 80, 150); stroke: purple;"/><text text-anchor="middle" dy="-15">&lt;!-- --&gt;</text></g><g class="node text indent" transform="translate(859.375,320)" style="opacity: 1; font-size: 11px; font-weight: bold;"><circle r="10" style="stroke-width: 1.5px; fill: rgb(255, 204, 0); stroke: orange;"/><text text-anchor="middle" dy="-15">#text</text></g><g class="node element" transform="translate(1034.375,320)" style="opacity: 1; font-size: 11px; font-weight: bold;"><circle r="10" style="stroke-width: 1.5px; fill: steelblue; stroke: rgb(53, 94, 149);"/><text text-anchor="middle" dy="-15">div.form-group</text></g><g class="node text indent" transform="translate(734.375,400)" style="opacity: 1; font-size: 11px; font-weight: bold;"><circle r="10" style="stroke-width: 1.5px; fill: rgb(255, 204, 0); stroke: orange;"/><text text-anchor="middle" dy="-15">#text</text></g><g class="node element" transform="translate(784.375,400)" style="opacity: 1; font-size: 11px; font-weight: bold;"><circle r="10" style="stroke-width: 1.5px; fill: steelblue; stroke: rgb(53, 94, 149);"/><text text-anchor="middle" dy="-15">label</text></g><g class="node text" transform="translate(784.375,480)" style="opacity: 1; font-size: 11px; font-weight: bold;"><circle r="10" style="stroke-width: 1.5px; fill: rgb(80, 180, 86); stroke: rgb(13, 149, 44);"/><text text-anchor="middle" dy="-15">#text</text></g><g class="node text indent" transform="translate(834.375,400)" style="opacity: 1; font-size: 11px; font-weight: bold;"><circle r="10" style="stroke-width: 1.5px; fill: rgb(255, 204, 0); stroke: orange;"/><text text-anchor="middle" dy="-15">#text</text></g><g class="node comment" transform="translate(884.375,400)" style="opacity: 1; font-size: 11px; font-weight: bold;"><circle r="10" style="stroke-width: 1.5px; fill: rgb(154, 80, 150); stroke: purple;"/><text text-anchor="middle" dy="-15">&lt;!-- --&gt;</text></g><g class="node text indent" transform="translate(934.375,400)" style="opacity: 1; font-size: 11px; font-weight: bold;"><circle r="10" style="stroke-width: 1.5px; fill: rgb(255, 204, 0); stroke: orange;"/><text text-anchor="middle" dy="-15">#text</text></g><g class="node element" transform="translate(984.375,400)" style="opacity: 1; font-size: 11px; font-weight: bold;"><circle r="10" style="stroke-width: 1.5px; fill: steelblue; stroke: rgb(53, 94, 149);"/><text text-anchor="middle" dy="-15">input#password</text></g><g class="node text indent" transform="translate(1034.375,400)" style="opacity: 1; font-size: 11px; font-weight: bold;"><circle r="10" style="stroke-width: 1.5px; fill: rgb(255, 204, 0); stroke: orange;"/><text text-anchor="middle" dy="-15">#text</text></g><g class="node comment" transform="translate(1084.375,400)" style="opacity: 1; font-size: 11px; font-weight: bold;"><circle r="10" style="stroke-width: 1.5px; fill: rgb(154, 80, 150); stroke: purple;"/><text text-anchor="middle" dy="-15">&lt;!-- --&gt;</text></g><g class="node text indent" transform="translate(1134.375,400)" style="opacity: 1; font-size: 11px; font-weight: bold;"><circle r="10" style="stroke-width: 1.5px; fill: rgb(255, 204, 0); stroke: orange;"/><text text-anchor="middle" dy="-15">#text</text></g><g class="node element" transform="translate(1184.375,400)" style="opacity: 1; font-size: 11px; font-weight: bold;"><circle r="10" style="stroke-width: 1.5px; fill: steelblue; stroke: rgb(53, 94, 149);"/><text text-anchor="middle" dy="-15">span.error-message</text></g><g class="node text indent" transform="translate(1234.375,400)" style="opacity: 1; font-size: 11px; font-weight: bold;"><circle r="10" style="stroke-width: 1.5px; fill: rgb(255, 204, 0); stroke: orange;"/><text text-anchor="middle" dy="-15">#text</text></g><g class="node comment" transform="translate(1284.375,400)" style="opacity: 1; font-size: 11px; font-weight: bold;"><circle r="10" style="stroke-width: 1.5px; fill: rgb(154, 80, 150); stroke: purple;"/><text text-anchor="middle" dy="-15">&lt;!-- --&gt;</text></g><g class="node text indent" transform="translate(1334.375,400)" style="opacity: 1; font-size: 11px; font-weight: bold;"><circle r="10" style="stroke-width: 1.5px; fill: rgb(255, 204, 0); stroke: orange;"/><text text-anchor="middle" dy="-15">#text</text></g><g class="node text indent" transform="translate(1162.5,320)" style="opacity: 1; font-size: 11px; font-weight: bold;"><circle r="10" style="stroke-width: 1.5px; fill: rgb(255, 204, 0); stroke: orange;"/><text text-anchor="middle" dy="-15">#text</text></g><g class="node comment" transform="translate(1290.625,320)" style="opacity: 1; font-size: 11px; font-weight: bold;"><circle r="10" style="stroke-width: 1.5px; fill: rgb(154, 80, 150); stroke: purple;"/><text text-anchor="middle" dy="-15">&lt;!-- --&gt;</text></g><g class="node text indent" transform="translate(1418.75,320)" style="opacity: 1; font-size: 11px; font-weight: bold;"><circle r="10" style="stroke-width: 1.5px; fill: rgb(255, 204, 0); stroke: orange;"/><text text-anchor="middle" dy="-15">#text</text></g><g class="node element" transform="translate(1546.875,320)" style="opacity: 1; font-size: 11px; font-weight: bold;"><circle r="10" style="stroke-width: 1.5px; fill: steelblue; stroke: rgb(53, 94, 149);"/><text text-anchor="middle" dy="-15">div.options</text></g><g class="node text indent" transform="translate(1434.375,400)" style="opacity: 1; font-size: 11px; font-weight: bold;"><circle r="10" style="stroke-width: 1.5px; fill: rgb(255, 204, 0); stroke: orange;"/><text text-anchor="middle" dy="-15">#text</text></g><g class="node element" transform="translate(1484.375,400)" style="opacity: 1; font-size: 11px; font-weight: bold;"><circle r="10" style="stroke-width: 1.5px; fill: steelblue; stroke: rgb(53, 94, 149);"/><text text-anchor="middle" dy="-15">label</text></g><g class="node element" transform="translate(1459.375,480)" style="opacity: 1; font-size: 11px; font-weight: bold;"><circle r="10" style="stroke-width: 1.5px; fill: steelblue; stroke: rgb(53, 94, 149);"/><text text-anchor="middle" dy="-15">input</text></g><g class="node text" transform="translate(1509.375,480)" style="opacity: 1; font-size: 11px; font-weight: bold;"><circle r="10" style="stroke-width: 1.5px; fill: rgb(80, 180, 86); stroke: rgb(13, 149, 44);"/><text text-anchor="middle" dy="-15">#text</text></g><g class="node text indent" transform="translate(1546.875,400)" style="opacity: 1; font-size: 11px; font-weight: bold;"><circle r="10" style="stroke-width: 1.5px; fill: rgb(255, 204, 0); stroke: orange;"/><text text-anchor="middle" dy="-15">#text</text></g><g class="node element" transform="translate(1609.375,400)" style="opacity: 1; font-size: 11px; font-weight: bold;"><circle r="10" style="stroke-width: 1.5px; fill: steelblue; stroke: rgb(53, 94, 149);"/><text text-anchor="middle" dy="-15">a.password-link</text></g><g class="node text" transform="translate(1609.375,480)" style="opacity: 1; font-size: 11px; font-weight: bold;"><circle r="10" style="stroke-width: 1.5px; fill: rgb(80, 180, 86); stroke: rgb(13, 149, 44);"/><text text-anchor="middle" dy="-15">#text</text></g><g class="node text indent" transform="translate(1659.375,400)" style="opacity: 1; font-size: 11px; font-weight: bold;"><circle r="10" style="stroke-width: 1.5px; fill: rgb(255, 204, 0); stroke: orange;"/><text text-anchor="middle" dy="-15">#text</text></g><g class="node text indent" transform="translate(1600,320)" style="opacity: 1; font-size: 11px; font-weight: bold;"><circle r="10" style="stroke-width: 1.5px; fill: rgb(255, 204, 0); stroke: orange;"/><text text-anchor="middle" dy="-15">#text</text></g><g class="node comment" transform="translate(1653.125,320)" style="opacity: 1; font-size: 11px; font-weight: bold;"><circle r="10" style="stroke-width: 1.5px; fill: rgb(154, 80, 150); stroke: purple;"/><text text-anchor="middle" dy="-15">&lt;!-- --&gt;</text></g><g class="node text indent" transform="translate(1706.25,320)" style="opacity: 1; font-size: 11px; font-weight: bold;"><circle r="10" style="stroke-width: 1.5px; fill: rgb(255, 204, 0); stroke: orange;"/><text text-anchor="middle" dy="-15">#text</text></g><g class="node element" transform="translate(1759.375,320)" style="opacity: 1; font-size: 11px; font-weight: bold;"><circle r="10" style="stroke-width: 1.5px; fill: steelblue; stroke: rgb(53, 94, 149);"/><text text-anchor="middle" dy="-15">button</text></g><g class="node text" transform="translate(1759.375,400)" style="opacity: 1; font-size: 11px; font-weight: bold;"><circle r="10" style="stroke-width: 1.5px; fill: rgb(80, 180, 86); stroke: rgb(13, 149, 44);"/><text text-anchor="middle" dy="-15">#text</text></g><g class="node text indent" transform="translate(1809.375,320)" style="opacity: 1; font-size: 11px; font-weight: bold;"><circle r="10" style="stroke-width: 1.5px; fill: rgb(255, 204, 0); stroke: orange;"/><text text-anchor="middle" dy="-15">#text</text></g><g class="node comment" transform="translate(1859.375,320)" style="opacity: 1; font-size: 11px; font-weight: bold;"><circle r="10" style="stroke-width: 1.5px; fill: rgb(154, 80, 150); stroke: purple;"/><text text-anchor="middle" dy="-15">&lt;!-- --&gt;</text></g><g class="node text indent" transform="translate(1909.375,320)" style="opacity: 1; font-size: 11px; font-weight: bold;"><circle r="10" style="stroke-width: 1.5px; fill: rgb(255, 204, 0); stroke: orange;"/><text text-anchor="middle" dy="-15">#text</text></g><g class="node element" transform="translate(1959.375,320)" style="opacity: 1; font-size: 11px; font-weight: bold;"><circle r="10" style="stroke-width: 1.5px; fill: steelblue; stroke: rgb(53, 94, 149);"/><text text-anchor="middle" dy="-15">div.signup-link</text></g><g class="node text" transform="translate(1909.375,400)" style="opacity: 1; font-size: 11px; font-weight: bold;"><circle r="10" style="stroke-width: 1.5px; fill: rgb(80, 180, 86); stroke: rgb(13, 149, 44);"/><text text-anchor="middle" dy="-15">#text</text></g><g class="node element" transform="translate(1959.375,400)" style="opacity: 1; font-size: 11px; font-weight: bold;"><circle r="10" style="stroke-width: 1.5px; fill: steelblue; stroke: rgb(53, 94, 149);"/><text text-anchor="middle" dy="-15">a</text></g><g class="node text" transform="translate(1959.375,480)" style="opacity: 1; font-size: 11px; font-weight: bold;"><circle r="10" style="stroke-width: 1.5px; fill: rgb(80, 180, 86); stroke: rgb(13, 149, 44);"/><text text-anchor="middle" dy="-15">#text</text></g><g class="node text indent" transform="translate(2009.375,400)" style="opacity: 1; font-size: 11px; font-weight: bold;"><circle r="10" style="stroke-width: 1.5px; fill: rgb(255, 204, 0); stroke: orange;"/><text text-anchor="middle" dy="-15">#text</text></g><g class="node text indent" transform="translate(2009.375,320)" style="opacity: 1; font-size: 11px; font-weight: bold;"><circle r="10" style="stroke-width: 1.5px; fill: rgb(255, 204, 0); stroke: orange;"/><text text-anchor="middle" dy="-15">#text</text></g><g class="node text indent" transform="translate(1096.875,240)" style="opacity: 1; font-size: 11px; font-weight: bold;"><circle r="10" style="stroke-width: 1.5px; fill: rgb(255, 204, 0); stroke: orange;"/><text text-anchor="middle" dy="-15">#text</text></g><g class="node element" transform="translate(515.625,160)" style="opacity: 1; font-size: 11px; font-weight: bold;"><circle r="10" style="stroke-width: 1.5px; fill: steelblue; stroke: rgb(53, 94, 149);"/><text text-anchor="middle" dy="-15">script</text></g><g class="node text indent" transform="translate(565.625,160)" style="opacity: 1; font-size: 11px; font-weight: bold;"><circle r="10" style="stroke-width: 1.5px; fill: rgb(255, 204, 0); stroke: orange;"/><text text-anchor="middle" dy="-15">#text</text></g><g class="node comment" transform="translate(615.625,160)" style="opacity: 1; font-size: 11px; font-weight: bold;"><circle r="10" style="stroke-width: 1.5px; fill: rgb(154, 80, 150); stroke: purple;"/><text text-anchor="middle" dy="-15">&lt;!-- --&gt;</text></g><g class="node text indent" transform="translate(665.625,160)" style="opacity: 1; font-size: 11px; font-weight: bold;"><circle r="10" style="stroke-width: 1.5px; fill: rgb(255, 204, 0); stroke: orange;"/><text text-anchor="middle" dy="-15">#text</text></g></g></svg>